<?xml version="1.0" encoding="UTF-8"?>
<svg width="32px" height="29px" viewBox="0 0 32 29" version="1.1" xmlns="http://www.w3.org/2000/svg" xmlns:xlink="http://www.w3.org/1999/xlink">
    <!-- Generator: Sketch 53.2 (72643) - https://sketchapp.com -->
    <title>Fill 88</title>
    <desc>Created with Sketch.</desc>
    <g id="Page-1" stroke="none" stroke-width="1" fill="none" fill-rule="evenodd">
        <g id="Desktop" transform="translate(-496.000000, -489.000000)" fill="#448483">
            <g id="icon-row" transform="translate(326.000000, 488.000000)">
                <path d="M170.62931,9.96969697 L176.793103,9.96969697 L176.793103,29.5909091 L170.62931,29.5909091 L170.62931,9.96969697 Z M193.688055,9.96969697 C198.033779,9.96969697 201.448276,12.7651716 201.448276,18.7852096 L201.448276,29.5909091 L194.514678,29.5909091 L194.514678,19.5341955 C194.514678,16.9016551 193.430373,15.1051127 191.044903,15.1051127 C189.220719,15.1051127 188.20615,16.3173097 187.734159,17.4860006 C187.557268,17.9057057 187.584482,18.4900512 187.584482,19.0743966 L187.584482,29.5909091 L180.715517,29.5909091 C180.715517,29.5909091 180.803962,11.7764761 180.715517,10.1565169 L187.584482,10.1565169 L187.584482,13.2070562 C187.99014,11.8728718 190.185113,9.96969697 193.688055,9.96969697 Z M173.734576,1 C175.948798,1 177.310049,2.44757633 177.353448,4.36065781 C177.353448,6.23969869 175.948798,7.72727273 173.692845,7.72727273 L173.649446,7.72727273 C171.477788,7.72727273 170.068966,6.24480478 170.068966,4.3657639 C170.068966,2.45098039 171.518684,1 173.734576,1 Z" id="Fill-88"></path>
            </g>
        </g>
    </g>
</svg>