<?xml version="1.0" encoding="UTF-8"?>
<svg width="32px" height="32px" viewBox="0 0 32 32" version="1.1" xmlns="http://www.w3.org/2000/svg" xmlns:xlink="http://www.w3.org/1999/xlink">
    <!-- Generator: Sketch 53.2 (72643) - https://sketchapp.com -->
    <title>instagram</title>
    <desc>Created with Sketch.</desc>
    <g id="Page-1" stroke="none" stroke-width="1" fill="none" fill-rule="evenodd">
        <g id="Desktop" transform="translate(-326.000000, -490.000000)" fill="#448483">
            <g id="icon-row" transform="translate(326.000000, 488.000000)">
                <path d="M6.58248077,14.8939394 L4.48254037,14.8939394 C4.173191,14.8939394 3.92241379,15.1358438 3.92241379,15.4493755 L3.92241379,17.7021396 C3.92241379,17.7655235 3.93327048,17.8264276 3.95319527,17.8831706 C3.93294987,18.0032972 3.92241379,18.1265252 3.92241379,18.2519994 L3.92241379,27.2328491 C3.92241379,28.4682261 4.92706232,29.469697 6.16755975,29.469697 L25.7720954,29.469697 C27.0120553,29.469697 28.0172414,28.4584193 28.0172414,27.2328491 L28.0172414,18.2519994 C28.0172414,18.126947 28.006947,18.0042914 27.9871557,17.8848287 C28.0066573,17.8279396 28.0172414,17.7665511 28.0172414,17.7021396 L28.0172414,15.4493755 C28.0172414,15.1426166 27.7629481,14.8939394 27.4571148,14.8939394 L24.7968296,14.8939394 C25.0690179,15.7801702 25.2155172,16.7214536 25.2155172,17.6969697 C25.2155172,22.9604107 20.9506435,27.2272727 15.6896552,27.2272727 C10.4286668,27.2272727 6.1637931,22.9604107 6.1637931,17.6969697 C6.1637931,16.7214536 6.3102924,15.7801702 6.58248077,14.8939394 Z M5.60999184,2 L25.7693185,2 C28.8644533,2 31.3793103,4.50474712 31.3793103,7.59450927 L31.3793103,27.7994301 C31.3793103,30.87791 28.8676314,33.3939394 25.7693185,33.3939394 L5.60999184,33.3939394 C2.514857,33.3939394 -2.84217094e-14,30.8891923 -2.84217094e-14,27.7994301 L-2.84217094e-14,7.59450927 C-2.84217094e-14,4.51602942 2.5116789,2 5.60999184,2 Z M15.6896552,23.8636364 C19.0938241,23.8636364 21.8534483,21.1027257 21.8534483,17.6969697 C21.8534483,14.2912137 19.0938241,11.530303 15.6896552,11.530303 C12.2854862,11.530303 9.52586207,14.2912137 9.52586207,17.6969697 C9.52586207,21.1027257 12.2854862,23.8636364 15.6896552,23.8636364 Z M22.4093199,5.92424242 C21.7928506,5.92424242 21.2931034,6.42888664 21.2931034,7.04097924 L21.2931034,10.9741723 C21.2931034,11.590929 21.7975125,12.0909091 22.4093199,12.0909091 L26.3406801,12.0909091 C26.9571494,12.0909091 27.4568966,11.5862649 27.4568966,10.9741723 L27.4568966,7.04097924 C27.4568966,6.42422253 26.9524875,5.92424242 26.3406801,5.92424242 L22.4093199,5.92424242 Z" id="instagram"></path>
            </g>
        </g>
    </g>
</svg>